#!OML:ASF X:\für Bonn\!DataBase\2005_08_11_Bastian_Final\c3d\Bastian.ASF
:FULLY-SPECIFIED
:DEGREES
91
root -1.33165 9.00649 2.09048 162.389 -2.56615 -174.032
lowerback 37.5514 0.589642 2.14318
upperback 7.96673 -1.1883 1.43052
thorax -9.64172 -1.81993 1.08614
lowerneck -11.9074 -7.71815 -4.63687
upperneck -10.6757 -7.74847 13.6248
head -0.449227 -3.08293 4.59975
rclavicle -1.39149e-014 1.98785e-015
rhumerus 75.9973 11.859 24.5142
rradius 41.5336
rwrist -76.0027
rhand -51.4054 -8.2344
rfingers 7.12502
rthumb -23.9374 -36.7623
lclavicle -1.39149e-014 1.98785e-015
lhumerus 75.0945 -17.4358 -42.0274
lradius 33.6085
lwrist 37.008
lhand -46.5777 25.2743
lfingers 7.12502
lthumb -19.3013 54.3364
rfemur -50.2172 -12.8186 30.0801
rtibia 138.225
rfoot -43.7505 -15.0206
rtoes -12.9986
lfemur -49.462 17.9366 -5.91459
ltibia 141.45
lfoot -46.5023 -17.4761
ltoes -16.3909
92
root -1.33187 9.19056 2.12108 162.678 -2.64197 -174.035
lowerback 37.5697 0.571486 2.1949
upperback 7.98959 -1.198 1.44018
thorax -9.62183 -1.82781 1.07315
lowerneck -11.9591 -7.71576 -4.59827
upperneck -10.8211 -7.70963 13.6366
head -0.488423 -3.05625 4.60094
rclavicle 2.5842e-015 -8.74653e-015
rhumerus 75.9351 11.6923 24.906
rradius 41.7109
rwrist -76.363
rhand -51.7338 -8.13981
rfingers 7.12502
rthumb -24.2523 -36.626
lclavicle 2.5842e-015 -8.74653e-015
lhumerus 75.1211 -17.4618 -41.9594
lradius 33.5479
lwrist 36.8684
lhand -46.7509 25.5211
lfingers 7.12502
lthumb -19.4678 54.5665
rfemur -50.0757 -12.048 30.1161
rtibia 136.701
rfoot -42.9467 -14.8586
rtoes -12.921
lfemur -49.5165 16.4557 -6.72916
ltibia 139.894
lfoot -45.5418 -17.0208
ltoes -16.3622
93
root -1.33339 9.37854 2.152 162.97 -2.72783 -174.072
lowerback 37.5376 0.537955 2.22786
upperback 8.01763 -1.23451 1.42919
thorax -9.57917 -1.84593 1.05687
lowerneck -11.9493 -7.70382 -4.5753
upperneck -10.993 -7.656 13.6605
head -0.544737 -3.02552 4.61114
rclavicle -1.39149e-014 3.97569e-015
rhumerus 75.8947 11.5718 25.0519
rradius 41.8313
rwrist -76.6003
rhand -52.0183 -8.04821
rfingers 7.12502
rthumb -24.5251 -36.4977
lclavicle -1.39149e-014 3.97569e-015
lhumerus 75.1173 -17.5138 -41.7893
lradius 33.4527
lwrist 36.6657
lhand -46.9436 25.7833
lfingers 7.12502
lthumb -19.6531 54.8099
rfemur -49.8909 -11.3879 30.0628
rtibia 135.15
rfoot -42.2004 -14.6279
rtoes -12.7779
lfemur -49.4868 15.0743 -7.52678
ltibia 138.292
lfoot -44.6024 -16.4954
ltoes -16.3784
94
root -1.33508 9.5734 2.18334 163.284 -2.80205 -174.084
lowerback 37.4566 0.501517 2.27988
upperback 8.04153 -1.26149 1.43295
thorax -9.52383 -1.85786 1.04104
lowerneck -11.9748 -7.68964 -4.58344
upperneck -11.115 -7.60309 13.6941
head -0.578966 -2.99283 4.62737
rclavicle -1.78906e-015 1.90833e-014
rhumerus 75.8925 11.4952 25.0286
rradius 41.8384
rwrist -76.6511
rhand -52.2628 -7.98759
rfingers 7.12502
rthumb -24.7594 -36.4051
lclavicle -1.78906e-015 1.90833e-014
lhumerus 75.1029 -17.5699 -41.4517
lradius 33.3213
lwrist 36.4171
lhand -47.1195 25.93
lfingers 7.12502
lthumb -19.8221 54.9392
rfemur -49.6876 -10.7308 30.044
rtibia 133.538
rfoot -41.4172 -14.4316
rtoes -12.6486
lfemur -49.4355 13.8063 -8.21102
ltibia 136.626
lfoot -43.6306 -16.0214
ltoes -16.3047
95
root -1.33742 9.77955 2.214 163.606 -2.85907 -174.117
lowerback 37.3695 0.472488 2.32753
upperback 8.05514 -1.27889 1.40925
thorax -9.47847 -1.8629 0.994267
lowerneck -11.9562 -7.67054 -4.54501
upperneck -11.2692 -7.54306 13.7321
head -0.631846 -2.95972 4.63946
rclavicle 4.37326e-015 4.37326e-015
rhumerus 75.889 11.5102 24.5993
rradius 41.6889
rwrist -76.3588
rhand -52.3786 -7.97154
rfingers 7.12502
rthumb -24.8703 -36.3738
lclavicle 4.37326e-015 4.37326e-015
lhumerus 75.1154 -17.5906 -41.134
lradius 33.1758
lwrist 36.1572
lhand -47.2468 26.0186
lfingers 7.12502
lthumb -19.9445 55.0151
rfemur -49.3928 -10.091 29.984
rtibia 131.832
rfoot -40.6613 -14.2084
rtoes -12.4303
lfemur -49.2419 12.6362 -8.86403
ltibia 134.841
lfoot -42.6597 -15.5534
ltoes -16.1217
96
root -1.34033 9.99362 2.24394 163.924 -2.90957 -174.138
lowerback 37.299 0.446541 2.35093
upperback 8.05896 -1.29696 1.42079
thorax -9.44928 -1.86838 0.998894
lowerneck -11.9596 -7.66017 -4.55643
upperneck -11.408 -7.49425 13.759
head -0.674316 -2.93043 4.65486
rclavicle 1.98785e-016 -7.95139e-015
rhumerus 75.938 11.5469 24.0762
rradius 41.4867
rwrist -75.9093
rhand -52.4796 -7.91011
rfingers 7.12502
rthumb -24.9671 -36.2989
lclavicle 1.98785e-016 -7.95139e-015
lhumerus 75.0943 -17.6445 -40.7508
lradius 33.0355
lwrist 35.9397
lhand -47.3799 26.0892
lfingers 7.12502
lthumb -20.0725 55.0723
rfemur -49.011 -9.46239 29.9144
rtibia 130.045
rfoot -39.9231 -13.9641
rtoes -12.2261
lfemur -48.954 11.5249 -9.44426
ltibia 132.985
lfoot -41.7684 -15.0434
ltoes -16.1554
97
root -1.34402 10.2133 2.27262 164.286 -2.97607 -174.167
lowerback 37.1874 0.413819 2.38386
upperback 8.03736 -1.30817 1.41962
thorax -9.43444 -1.86499 0.981248
lowerneck -11.9225 -7.64342 -4.55066
upperneck -11.5302 -7.44742 13.7655
head -0.719932 -2.90621 4.66176
rclavicle 2.127e-014 0
rhumerus 75.9658 11.6307 23.5409
rradius 41.275
rwrist -75.4512
rhand -52.57 -7.84352
rfingers 7.12502
rthumb -25.0538 -36.2203
lclavicle 2.127e-014 0
lhumerus 75.1629 -17.6654 -40.4992
lradius 32.8982
lwrist 35.8451
lhand -47.5726 26.1396
lfingers 7.12502
lthumb -20.2577 55.1032
rfemur -48.6329 -8.89834 29.8211
rtibia 128.203
rfoot -39.1823 -13.7345
rtoes -11.9539
lfemur -48.6558 10.4737 -9.9936
ltibia 131.049
lfoot -40.8232 -14.5876
ltoes -15.8918
98
root -1.3479 10.4364 2.29902 164.64 -3.01593 -174.186
lowerback 37.0584 0.378873 2.4398
upperback 8.02389 -1.31785 1.39691
thorax -9.40455 -1.86139 0.927202
lowerneck -11.8881 -7.62606 -4.48977
upperneck -11.6593 -7.40187 13.7687
head -0.769631 -2.88358 4.6587
rclavicle 1.07344e-014 1.74931e-014
rhumerus 76.0153 11.7185 23.1223
rradius 41.0813
rwrist -75.0741
rhand -52.7096 -7.81727
rfingers 7.12502
rthumb -25.1875 -36.1753
lclavicle 1.07344e-014 1.74931e-014
lhumerus 75.2269 -17.6703 -40.3321
lradius 32.7809
lwrist 35.7257
lhand -47.7909 26.2668
lfingers 7.12502
lthumb -20.4675 55.208
rfemur -48.171 -8.34395 29.7477
rtibia 126.301
rfoot -38.4663 -13.5877
rtoes -11.86
lfemur -48.2574 9.56002 -10.464
ltibia 129.057
lfoot -39.9197 -14.1364
ltoes -15.6617
